# Blender v2.91.2 OBJ File: ''
# www.blender.org
o Sphere_Sphere.001
v 0.000000 0.176189 -0.040426
v 0.000000 0.095002 -0.061420
v 0.000000 0.050558 -0.040502
v 0.028311 0.180069 -0.016345
v 0.051557 0.149954 -0.029767
v 0.053136 0.095029 -0.030678
v 0.035075 0.050558 -0.020251
v 0.035010 0.176189 0.020213
v 0.052397 0.149531 0.030252
v 0.053191 0.095002 0.030710
v 0.035075 0.050558 0.020251
v -0.000000 0.180069 0.032691
v -0.000000 0.149954 0.059533
v -0.000000 0.095029 0.061356
v -0.000000 0.050558 0.040502
v 0.025875 0.001656 -0.014939
v 0.000000 0.187305 0.000000
v -0.035010 0.176189 0.020213
v -0.052397 0.149531 0.030252
v -0.053191 0.095002 0.030710
v -0.035075 0.050558 0.020251
v -0.028311 0.180069 -0.016345
v -0.051557 0.149954 -0.029767
v -0.053136 0.095029 -0.030678
v -0.035075 0.050558 -0.020251
v 0.000000 0.149531 -0.060503
v 0.025875 0.042791 -0.014939
v 0.000000 0.042791 -0.029878
v 0.025875 0.042791 0.014939
v -0.000000 0.042791 0.029878
v -0.025875 0.042791 0.014939
v -0.025875 0.042791 -0.014939
v 0.000000 0.001656 -0.029878
v 0.025875 0.001656 0.014939
v -0.000000 0.001656 0.029878
v -0.025875 0.001656 0.014939
v -0.025875 0.001656 -0.014939
v 0.000000 0.000000 0.000000
vt 0.666667 0.200000
vt 0.500000 0.200000
vt 0.666667 0.200000
vt 0.333333 0.200000
vt 0.166667 0.200000
vt 0.333333 0.200000
vt 1.000000 0.200000
vt 0.833333 0.200000
vt 1.000000 0.200000
vt 0.916667 0.000000
vt 0.250000 0.000000
vt 0.583333 0.000000
vt 0.166667 0.200000
vt 0.000000 0.200000
vt 0.500000 0.200000
vt 0.833333 0.200000
vt 0.000000 0.200000
vt 0.250000 1.000000
vt 0.333333 0.800000
vt 0.500000 0.800000
vt 0.666667 0.200000
vt 0.500000 0.400000
vt 0.500000 0.200000
vt 0.666667 0.600000
vt 0.500000 0.600000
vt 1.000000 0.200000
vt 0.666667 0.400000
vt 0.333333 0.600000
vt 0.333333 0.400000
vt 0.166667 0.200000
vt 0.333333 0.200000
vt 0.166667 0.600000
vt 0.166667 0.400000
vt 0.166667 0.800000
vt 0.000000 0.600000
vt 0.000000 0.400000
vt 0.833333 0.800000
vt 0.666667 0.800000
vt 0.000000 0.200000
vt 0.000000 0.800000
vt 1.000000 0.400000
vt 0.833333 0.600000
vt 0.833333 0.400000
vt 0.833333 0.200000
vt 1.000000 0.600000
vt 0.916667 1.000000
vt 0.583333 1.000000
vt 1.000000 0.800000
vn 0.5000 -0.0000 -0.8660
vn 0.5000 0.0000 0.8660
vn -1.0000 0.0000 -0.0000
vn -0.0639 -0.9980 -0.0000
vn 0.0319 -0.9980 0.0553
vn 0.0319 -0.9980 -0.0553
vn -0.5000 0.0000 0.8660
vn 1.0000 0.0000 0.0000
vn -0.5000 0.0000 -0.8660
vn -0.0319 -0.9980 -0.0553
vn -0.0319 -0.9980 0.0553
vn 0.0639 -0.9980 0.0000
vn 0.0000 0.9988 -0.0487
vn 0.5423 0.7645 0.3484
vn 0.4514 0.8423 -0.2944
vn 0.0002 -0.5996 -0.8003
vn 0.8493 -0.1898 -0.4925
vn 0.6932 -0.5992 -0.4005
vn 0.0092 0.3075 -0.9515
vn 0.8127 0.3314 -0.4792
vn -0.6932 -0.5996 0.3999
vn -0.7378 -0.5235 -0.4260
vn -0.7378 -0.5235 0.4260
vn 0.0019 -0.1946 -0.9809
vn 0.8194 0.3075 0.4837
vn 0.8485 -0.1946 0.4921
vn 0.0002 -0.5992 0.8006
vn 0.0000 -0.5235 0.8520
vn 0.6930 -0.5996 0.4003
vn 0.7378 -0.5235 0.4260
vn 0.0086 0.3314 0.9434
vn 0.0019 -0.1898 0.9818
vn 0.0169 0.8340 0.5515
vn -0.8286 0.3075 0.4678
vn -0.8504 -0.1946 0.4888
vn -0.4687 0.8427 -0.2650
vn 0.0311 0.7851 -0.6186
vn -0.5729 0.7645 0.2954
vn -0.8213 0.3314 -0.4643
vn -0.8512 -0.1898 -0.4892
vn -0.6934 -0.5992 -0.4001
vn 0.7378 -0.5235 -0.4260
vn 0.0000 -0.5235 -0.8520
s off
f 28/1/1 16/2/1 33/3/1
f 29/4/2 35/5/2 34/6/2
f 31/7/3 37/8/3 36/9/3
f 37/8/4 38/10/4 36/9/4
f 35/5/5 38/11/5 34/6/5
f 16/2/6 38/12/6 33/3/6
f 30/13/7 36/14/7 35/5/7
f 27/15/8 34/6/8 16/2/8
f 32/16/9 33/3/9 37/8/9
f 28/1/1 27/15/1 16/2/1
f 29/4/2 30/13/2 35/5/2
f 31/7/3 32/16/3 37/8/3
f 37/8/10 33/3/10 38/10/10
f 35/5/11 36/14/11 38/11/11
f 16/2/12 34/6/12 38/12/12
f 30/13/7 31/17/7 36/14/7
f 27/15/8 29/4/8 34/6/8
f 32/16/9 28/1/9 33/3/9
s 1
f 17/18/13 8/19/14 4/20/15
f 3/21/16 6/22/17 7/23/18
f 26/24/19 4/20/15 5/25/20
f 21/26/21 32/16/22 31/7/23
f 2/27/24 5/25/20 6/22/17
f 6/22/17 9/28/25 10/29/26
f 15/30/27 31/17/23 30/13/28
f 7/23/18 10/29/26 11/31/29
f 5/25/20 8/19/14 9/28/25
f 11/31/29 30/13/28 29/4/30
f 10/29/26 13/32/31 14/33/32
f 11/31/29 14/33/32 15/30/27
f 9/28/25 12/34/33 13/32/31
f 14/33/32 19/35/34 20/36/35
f 22/37/36 4/20/15 1/38/37
f 15/30/27 20/36/35 21/39/21
f 13/32/31 18/40/38 19/35/34
f 20/41/35 23/42/39 24/43/40
f 21/26/21 24/43/40 25/44/41
f 19/45/34 22/37/36 23/42/39
f 24/43/40 26/24/19 2/27/24
f 25/44/41 2/27/24 3/21/16
f 23/42/39 1/38/37 26/24/19
f 17/46/13 18/40/38 12/34/33
f 3/21/16 27/15/42 28/1/43
f 25/44/41 28/1/43 32/16/22
f 7/23/18 29/4/30 27/15/42
f 17/18/13 12/34/33 8/19/14
f 3/21/16 2/27/24 6/22/17
f 26/24/19 1/38/37 4/20/15
f 21/26/21 25/44/41 32/16/22
f 2/27/24 26/24/19 5/25/20
f 6/22/17 5/25/20 9/28/25
f 15/30/27 21/39/21 31/17/23
f 7/23/18 6/22/17 10/29/26
f 5/25/20 4/20/15 8/19/14
f 11/31/29 15/30/27 30/13/28
f 10/29/26 9/28/25 13/32/31
f 11/31/29 10/29/26 14/33/32
f 9/28/25 8/19/14 12/34/33
f 14/33/32 13/32/31 19/35/34
f 22/37/36 17/47/13 4/20/15
f 15/30/27 14/33/32 20/36/35
f 13/32/31 12/34/33 18/40/38
f 20/41/35 19/45/34 23/42/39
f 21/26/21 20/41/35 24/43/40
f 19/45/34 18/48/38 22/37/36
f 24/43/40 23/42/39 26/24/19
f 25/44/41 24/43/40 2/27/24
f 23/42/39 22/37/36 1/38/37
f 17/46/13 22/37/36 18/40/38
f 3/21/16 7/23/18 27/15/42
f 25/44/41 3/21/16 28/1/43
f 7/23/18 11/31/29 29/4/30
