# Blender v2.91.2 OBJ File: ''
# www.blender.org
o Cone
v 0.060411 -0.000000 -0.344753
v 0.030206 0.052317 -0.344753
v -0.030205 0.052317 -0.344753
v -0.060411 0.000000 -0.344753
v -0.030205 -0.052317 -0.344753
v 0.030205 -0.052317 -0.344753
v 0.000000 -0.000000 -0.465575
v 0.028548 -0.000000 -0.034246
v 0.028548 -0.000000 -0.334174
v 0.014274 0.024723 -0.334174
v -0.014274 0.024723 -0.334174
v -0.028548 -0.000000 -0.334174
v -0.014274 -0.024723 -0.334174
v 0.014274 -0.024723 -0.334174
v 0.252131 -0.000000 0.003489
v 0.014274 0.024723 -0.034247
v -0.014274 0.024723 -0.034247
v -0.028548 -0.000000 -0.034247
v -0.014274 -0.024723 -0.034247
v 0.014274 -0.024723 -0.034247
v 0.252131 -0.000000 0.043021
v 0.126066 0.218352 0.003489
v -0.126066 0.218352 0.003489
v -0.252131 0.000000 0.003489
v -0.126066 -0.218352 0.003489
v 0.126065 -0.218352 0.003489
v 0.126066 0.218352 0.043021
v -0.126066 0.218352 0.043021
v -0.252131 0.000000 0.043021
v -0.126066 -0.218352 0.043021
v 0.126065 -0.218352 0.043021
v -0.000000 -0.000000 0.043021
vt 0.250000 0.490000
vt 0.250000 0.250000
vt 0.457846 0.370000
vt 0.457846 0.130000
vt 0.250000 0.010000
vt 0.042154 0.130000
vt 0.457846 0.370000
vt 0.042154 0.370000
vt 0.457846 0.130000
vt 0.250000 0.010000
vt 0.042154 0.130000
vt 0.250000 0.490000
vt 0.042154 0.370000
vt 0.457846 0.370000
vt 0.250000 0.010000
vt 0.042154 0.370000
vt 0.250000 0.490000
vt 0.457846 0.130000
vt 0.042154 0.130000
vt 0.250000 0.490000
vt 0.457846 0.130000
vt 0.042154 0.130000
vt 0.457846 0.370000
vt 0.250000 0.010000
vt 0.042154 0.370000
vt 0.457846 0.370000
vt 0.250000 0.010000
vt 0.042154 0.370000
vt 0.250000 0.490000
vt 0.457846 0.130000
vt 0.042154 0.130000
vt 0.042154 0.370000
vt 0.250000 0.490000
vt 0.042154 0.130000
vt 0.250000 0.010000
vt 0.457846 0.130000
vt 0.457846 0.370000
vn 0.7947 0.4588 -0.3974
vn 0.0000 0.9177 -0.3974
vn -0.7947 0.4588 -0.3974
vn -0.7947 -0.4588 -0.3974
vn -0.0000 0.3580 0.9337
vn 0.0000 -0.9177 -0.3974
vn 0.7947 -0.4588 -0.3974
vn -0.3100 0.1790 0.9337
vn -0.3100 -0.1790 0.9337
vn -0.0000 -0.3580 0.9337
vn 0.3100 0.1790 0.9337
vn 0.3100 -0.1790 0.9337
vn 0.0000 1.0000 0.0000
vn -0.8660 -0.5000 -0.0000
vn 0.8660 -0.5000 0.0000
vn 0.8660 0.5000 0.0000
vn -0.8660 0.5000 -0.0000
vn -0.0000 -1.0000 0.0000
vn 0.1657 0.0956 -0.9815
vn -0.1657 0.0956 -0.9815
vn 0.0000 -0.1913 -0.9815
vn 0.0000 0.1913 -0.9815
vn -0.1657 -0.0956 -0.9815
vn 0.1657 -0.0956 -0.9815
vn -0.0000 -0.0000 1.0000
s off
f 1/1/1 7/2/1 2/3/1
f 2/3/2 7/2/2 3/4/2
f 3/4/3 7/2/3 4/5/3
f 4/5/4 7/2/4 5/6/4
f 3/4/5 10/7/5 2/3/5
f 5/6/6 7/2/6 6/8/6
f 6/8/7 7/2/7 1/1/7
f 4/5/8 11/9/8 3/4/8
f 5/6/9 12/10/9 4/5/9
f 6/8/10 13/11/10 5/6/10
f 2/3/11 9/12/11 1/1/11
f 1/1/12 14/13/12 6/8/12
f 11/9/13 16/14/13 10/7/13
f 13/11/14 18/15/14 12/10/14
f 9/12/15 20/16/15 14/13/15
f 10/7/16 8/17/16 9/12/16
f 12/10/17 17/18/17 11/9/17
f 14/13/18 19/19/18 13/11/18
f 16/14/19 15/20/19 8/17/19
f 18/15/20 23/21/20 17/18/20
f 20/16/21 25/22/21 19/19/21
f 17/18/22 22/23/22 16/14/22
f 19/19/23 24/24/23 18/15/23
f 8/17/24 26/25/24 20/16/24
f 23/21/13 27/26/13 22/23/13
f 25/22/14 29/27/14 24/24/14
f 15/20/15 31/28/15 26/25/15
f 22/23/16 21/29/16 15/20/16
f 24/24/17 28/30/17 23/21/17
f 26/25/18 30/31/18 25/22/18
f 31/28/25 21/29/25 32/32/25
f 21/29/25 27/26/25 32/33/25
f 30/31/25 31/28/25 32/34/25
f 29/27/25 30/31/25 32/35/25
f 28/30/25 29/27/25 32/36/25
f 27/26/25 28/30/25 32/37/25
f 3/4/5 11/9/5 10/7/5
f 4/5/8 12/10/8 11/9/8
f 5/6/9 13/11/9 12/10/9
f 6/8/10 14/13/10 13/11/10
f 2/3/11 10/7/11 9/12/11
f 1/1/12 9/12/12 14/13/12
f 11/9/13 17/18/13 16/14/13
f 13/11/14 19/19/14 18/15/14
f 9/12/15 8/17/15 20/16/15
f 10/7/16 16/14/16 8/17/16
f 12/10/17 18/15/17 17/18/17
f 14/13/18 20/16/18 19/19/18
f 16/14/19 22/23/19 15/20/19
f 18/15/20 24/24/20 23/21/20
f 20/16/21 26/25/21 25/22/21
f 17/18/22 23/21/22 22/23/22
f 19/19/23 25/22/23 24/24/23
f 8/17/24 15/20/24 26/25/24
f 23/21/13 28/30/13 27/26/13
f 25/22/14 30/31/14 29/27/14
f 15/20/15 21/29/15 31/28/15
f 22/23/16 27/26/16 21/29/16
f 24/24/17 29/27/17 28/30/17
f 26/25/18 31/28/18 30/31/18
