# 3ds Max Wavefront OBJ Exporter v0.99 - (c)2007 guruware
# File Created: 04.04.2021 23:01:48

#
# object Scale___X_Axis
#

v  -0.0000 -0.0161 -0.0192
v  -0.0000 -0.0217 -0.0125
v  -0.0000 -0.0246 -0.0043
v  -0.0000 -0.0246 0.0043
v  -0.0000 -0.0217 0.0125
v  0.0000 -0.0161 0.0192
v  0.0000 -0.0086 0.0235
v  0.0000 0.0000 0.0250
v  0.0000 0.0086 0.0235
v  0.0000 0.0161 0.0192
v  0.0000 0.0217 0.0125
v  0.0000 0.0246 0.0043
v  0.0000 0.0246 -0.0043
v  0.0000 0.0217 -0.0125
v  -0.0000 0.0161 -0.0192
v  -0.0000 0.0086 -0.0235
v  -0.0000 0.0000 -0.0250
v  -0.0000 -0.0086 -0.0235
v  0.8500 0.0086 -0.0235
v  0.8500 -0.0000 -0.0250
v  0.8500 0.0161 -0.0192
v  0.8500 0.0217 -0.0125
v  0.8500 0.0246 -0.0043
v  0.8500 0.0246 0.0043
v  0.8500 0.0217 0.0125
v  0.8500 0.0161 0.0192
v  0.8500 0.0086 0.0235
v  0.8500 -0.0000 0.0250
v  0.8500 -0.0086 0.0235
v  0.8500 -0.0161 0.0192
v  0.8500 -0.0217 0.0125
v  0.8500 -0.0246 0.0043
v  0.8500 -0.0246 -0.0043
v  0.8500 -0.0217 -0.0125
v  0.8500 -0.0161 -0.0192
v  0.8500 -0.0086 -0.0235
v  0.8500 0.0122 -0.0335
v  0.8500 -0.0000 -0.0356
v  0.8500 0.0229 -0.0273
v  0.8500 0.0309 -0.0178
v  0.8500 0.0351 -0.0062
v  0.8500 0.0351 0.0062
v  0.8500 0.0309 0.0178
v  0.8500 0.0229 0.0273
v  0.8500 0.0122 0.0335
v  0.8500 -0.0000 0.0356
v  0.8500 -0.0122 0.0335
v  0.8500 -0.0229 0.0273
v  0.8500 -0.0309 0.0178
v  0.8500 -0.0351 0.0062
v  0.8500 -0.0351 -0.0062
v  0.8500 -0.0309 -0.0178
v  0.8500 -0.0229 -0.0273
v  0.8500 -0.0122 -0.0335
v  1.0000 0.0122 -0.0335
v  1.0000 -0.0000 -0.0356
v  1.0000 0.0229 -0.0273
v  1.0000 0.0309 -0.0178
v  1.0000 0.0351 -0.0062
v  1.0000 0.0351 0.0062
v  1.0000 0.0309 0.0178
v  1.0000 0.0229 0.0273
v  1.0000 0.0122 0.0335
v  1.0000 -0.0000 0.0356
v  1.0000 -0.0122 0.0335
v  1.0000 -0.0229 0.0273
v  1.0000 -0.0309 0.0178
v  1.0000 -0.0351 0.0062
v  1.0000 -0.0351 -0.0062
v  1.0000 -0.0309 -0.0178
v  1.0000 -0.0229 -0.0273
v  1.0000 -0.0122 -0.0335
# 72 vertices

vn -1.0000 0.0000 0.0000
vn -0.0000 -0.0000 -1.0000
vn -0.0000 0.3420 -0.9397
vn -0.0000 0.6428 -0.7660
vn 0.0000 0.8660 -0.5000
vn 0.0000 0.9848 -0.1736
vn 0.0000 0.9848 0.1736
vn 0.0000 0.8660 0.5000
vn 0.0000 0.6428 0.7660
vn 0.0000 0.3420 0.9397
vn 0.0000 0.0000 1.0000
vn 0.0000 -0.3420 0.9397
vn 0.0000 -0.6428 0.7660
vn -0.0000 -0.8660 0.5000
vn -0.0000 -0.9848 0.1736
vn -0.0000 -0.9848 -0.1736
vn -0.0000 -0.8660 -0.5000
vn -0.0000 -0.6428 -0.7660
vn -0.0000 -0.3420 -0.9397
vn -1.0000 0.0000 -0.0000
vn -1.0000 -0.0000 0.0000
vn -1.0000 -0.0000 -0.0000
vn -0.0000 0.1736 -0.9848
vn -0.0000 0.5000 -0.8660
vn 0.0000 0.7660 -0.6428
vn 0.0000 0.9397 -0.3420
vn 0.0000 1.0000 0.0000
vn 0.0000 0.9397 0.3420
vn 0.0000 0.7660 0.6428
vn -0.0000 0.7660 0.6428
vn 0.0000 0.5000 0.8660
vn 0.0000 0.1736 0.9848
vn 0.0000 -0.1736 0.9848
vn 0.0000 -0.5000 0.8660
vn -0.0000 -0.7660 0.6428
vn -0.0000 -0.9397 0.3420
vn -0.0000 -1.0000 0.0000
vn -0.0000 -0.9397 -0.3420
vn -0.0000 -0.7660 -0.6428
vn -0.0000 -0.5000 -0.8660
vn -0.0000 -0.1736 -0.9848
vn 1.0000 -0.0000 -0.0000
# 42 vertex normals

vt 0.1953 0.0000 -0.3473
vt 0.0874 0.0000 -0.6527
vt 0.0292 0.0000 -0.8794
vt 0.0278 0.0000 -1.0000
vt 0.0833 0.0000 -1.0000
vt 0.1891 0.0000 -0.8794
vt 0.3325 0.0000 -0.6527
vt 0.4960 0.0000 -0.3473
vt 0.6600 0.0000 0.0000
vt 0.8047 0.0000 0.3473
vt 0.9126 0.0000 0.6527
vt 0.9708 0.0000 0.8794
vt 0.9722 0.0000 1.0000
vt 0.9167 0.0000 1.0000
vt 0.8611 0.0000 1.0000
vt 0.8056 0.0000 1.0000
vt 0.7500 0.0000 1.0000
vt 0.3400 0.0000 -0.0000
vt 0.8056 1.0000 1.0000
vt 0.7500 1.0000 1.0000
vt 0.8611 1.0000 1.0000
vt 0.9167 1.0000 1.0000
vt 0.9722 1.0000 1.0000
vt -0.0278 0.0000 1.0000
vt 0.0278 0.0000 1.0000
vt 0.0278 1.0000 1.0000
vt -0.0278 1.0000 1.0000
vt 0.0833 0.0000 1.0000
vt 0.0833 1.0000 1.0000
vt 0.1389 0.0000 1.0000
vt 0.1389 1.0000 1.0000
vt 0.1944 0.0000 1.0000
vt 0.1944 1.0000 1.0000
vt 0.2500 0.0000 1.0000
vt 0.2500 1.0000 1.0000
vt 0.3056 0.0000 1.0000
vt 0.3056 1.0000 1.0000
vt 0.3611 0.0000 1.0000
vt 0.3611 1.0000 1.0000
vt 0.4167 0.0000 1.0000
vt 0.4167 1.0000 1.0000
vt 0.4722 0.0000 1.0000
vt 0.4722 1.0000 1.0000
vt 0.5278 0.0000 1.0000
vt 0.5278 1.0000 1.0000
vt 0.5833 0.0000 1.0000
vt 0.5833 1.0000 1.0000
vt 0.6389 0.0000 1.0000
vt 0.6389 1.0000 1.0000
vt 0.6944 0.0000 1.0000
vt 0.6944 1.0000 1.0000
# 51 texture coords

o Scale___X_Axis
g Scale___X_Axis
f 1/1/1 2/2/1 3/3/1 
f 3/3/1 4/4/1 5/5/1 
f 5/5/1 6/6/1 7/7/1 
f 3/3/1 5/5/1 7/7/1 
f 7/7/1 8/8/1 9/9/1 
f 9/9/1 10/10/1 11/11/1 
f 7/7/1 9/9/1 11/11/1 
f 11/11/1 12/12/1 13/13/1 
f 13/13/1 14/14/1 15/15/1 
f 11/11/1 13/13/1 15/15/1 
f 7/7/1 11/11/1 15/15/1 
f 3/3/1 7/7/1 15/15/1 
f 15/15/1 16/16/1 17/17/1 
f 3/3/1 15/15/1 17/17/1 
f 1/1/1 3/3/1 17/17/1 
f 18/18/1 1/1/1 17/17/1 
f 17/17/2 16/16/3 19/19/3 
f 19/19/3 20/20/2 17/17/2 
f 16/16/3 15/15/4 21/21/4 
f 21/21/4 19/19/3 16/16/3 
f 15/15/4 14/14/5 22/22/5 
f 22/22/5 21/21/4 15/15/4 
f 14/14/5 13/13/6 23/23/6 
f 23/23/6 22/22/5 14/14/5 
f 13/24/6 12/25/7 24/26/7 
f 24/26/7 23/27/6 13/24/6 
f 12/25/7 11/28/8 25/29/8 
f 25/29/8 24/26/7 12/25/7 
f 11/28/8 10/30/9 26/31/9 
f 26/31/9 25/29/8 11/28/8 
f 10/30/9 9/32/10 27/33/10 
f 27/33/10 26/31/9 10/30/9 
f 9/32/10 8/34/11 28/35/11 
f 28/35/11 27/33/10 9/32/10 
f 8/34/11 7/36/12 29/37/12 
f 29/37/12 28/35/11 8/34/11 
f 7/36/12 6/38/13 30/39/13 
f 30/39/13 29/37/12 7/36/12 
f 6/38/13 5/40/14 31/41/14 
f 31/41/14 30/39/13 6/38/13 
f 5/40/14 4/42/15 32/43/15 
f 32/43/15 31/41/14 5/40/14 
f 4/42/15 3/44/16 33/45/16 
f 33/45/16 32/43/15 4/42/15 
f 3/44/16 2/46/17 34/47/17 
f 34/47/17 33/45/16 3/44/16 
f 2/46/17 1/48/18 35/49/18 
f 35/49/18 34/47/17 2/46/17 
f 1/48/18 18/50/19 36/51/19 
f 36/51/19 35/49/18 1/48/18 
f 18/50/19 17/17/2 20/20/2 
f 20/20/2 36/51/19 18/50/19 
f 20/20/20 19/19/20 37/19/20 
f 37/19/20 38/20/20 20/20/20 
f 19/19/20 21/21/20 39/21/20 
f 39/21/20 37/19/20 19/19/20 
f 21/21/20 22/22/20 40/22/20 
f 40/22/20 39/21/20 21/21/20 
f 22/22/20 23/23/20 41/23/20 
f 41/23/20 40/22/20 22/22/20 
f 23/27/1 24/26/1 42/26/1 
f 42/26/1 41/27/1 23/27/1 
f 24/26/1 25/29/1 43/29/1 
f 43/29/1 42/26/1 24/26/1 
f 25/29/1 26/31/1 44/31/1 
f 44/31/1 43/29/1 25/29/1 
f 26/31/1 27/33/1 45/33/1 
f 45/33/1 44/31/1 26/31/1 
f 27/33/1 28/35/1 46/35/1 
f 46/35/1 45/33/1 27/33/1 
f 28/35/21 29/37/21 47/37/21 
f 47/37/21 46/35/21 28/35/21 
f 29/37/21 30/39/21 48/39/21 
f 48/39/21 47/37/21 29/37/21 
f 30/39/21 31/41/21 49/41/21 
f 49/41/21 48/39/21 30/39/21 
f 31/41/21 32/43/21 50/43/21 
f 50/43/21 49/41/21 31/41/21 
f 32/43/21 33/45/21 51/45/21 
f 51/45/21 50/43/21 32/43/21 
f 33/45/22 34/47/22 52/47/22 
f 52/47/22 51/45/22 33/45/22 
f 34/47/22 35/49/22 53/49/22 
f 53/49/22 52/47/22 34/47/22 
f 35/49/22 36/51/22 54/51/22 
f 54/51/22 53/49/22 35/49/22 
f 36/51/22 20/20/22 38/20/22 
f 38/20/22 54/51/22 36/51/22 
f 38/20/23 37/19/23 55/19/23 
f 55/19/23 56/20/23 38/20/23 
f 37/19/24 39/21/24 57/21/24 
f 57/21/24 55/19/24 37/19/24 
f 39/21/25 40/22/25 58/22/25 
f 58/22/25 57/21/25 39/21/25 
f 40/22/26 41/23/26 59/23/26 
f 59/23/26 58/22/26 40/22/26 
f 41/27/27 42/26/27 60/26/27 
f 60/26/27 59/27/27 41/27/27 
f 42/26/28 43/29/28 61/29/28 
f 61/29/28 60/26/28 42/26/28 
f 43/29/29 44/31/29 62/31/29 
f 62/31/30 61/29/30 43/29/30 
f 44/31/31 45/33/31 63/33/31 
f 63/33/31 62/31/31 44/31/31 
f 45/33/32 46/35/32 64/35/32 
f 64/35/32 63/33/32 45/33/32 
f 46/35/33 47/37/33 65/37/33 
f 65/37/33 64/35/33 46/35/33 
f 47/37/34 48/39/34 66/39/34 
f 66/39/34 65/37/34 47/37/34 
f 48/39/35 49/41/35 67/41/35 
f 67/41/35 66/39/35 48/39/35 
f 49/41/36 50/43/36 68/43/36 
f 68/43/36 67/41/36 49/41/36 
f 50/43/37 51/45/37 69/45/37 
f 69/45/37 68/43/37 50/43/37 
f 51/45/38 52/47/38 70/47/38 
f 70/47/38 69/45/38 51/45/38 
f 52/47/39 53/49/39 71/49/39 
f 71/49/39 70/47/39 52/47/39 
f 53/49/40 54/51/40 72/51/40 
f 72/51/40 71/49/40 53/49/40 
f 54/51/41 38/20/41 56/20/41 
f 56/20/41 72/51/41 54/51/41 
f 57/21/42 58/22/42 59/23/42 
f 59/23/42 60/26/42 61/29/42 
f 61/29/42 62/31/42 63/33/42 
f 59/23/42 61/29/42 63/33/42 
f 63/33/42 64/35/42 65/37/42 
f 65/37/42 66/39/42 67/41/42 
f 63/33/42 65/37/42 67/41/42 
f 67/41/42 68/43/42 69/45/42 
f 69/45/42 70/47/42 71/49/42 
f 67/41/42 69/45/42 71/49/42 
f 63/33/42 67/41/42 71/49/42 
f 59/23/42 63/33/42 71/49/42 
f 71/49/42 72/51/42 56/20/42 
f 59/23/42 71/49/42 56/20/42 
f 57/21/42 59/23/42 56/20/42 
f 55/19/42 57/21/42 56/20/42 
# 140 faces

